<?xml version="1.0" encoding="UTF-8" standalone="no"?>
<!-- Created with Inkscape (http://www.inkscape.org/) -->

<svg
   width="210mm"
   height="297mm"
   viewBox="0 0 210 297"
   version="1.1"
   id="svg1"
   inkscape:version="1.4.3 (0d15f75, 2025-12-25)"
   sodipodi:docname="Plakats2.svg"
   xmlns:inkscape="http://www.inkscape.org/namespaces/inkscape"
   xmlns:sodipodi="http://sodipodi.sourceforge.net/DTD/sodipodi-0.dtd"
   xmlns:xlink="http://www.w3.org/1999/xlink"
   xmlns="http://www.w3.org/2000/svg"
   xmlns:svg="http://www.w3.org/2000/svg">
  <sodipodi:namedview
     id="namedview1"
     pagecolor="#ffffff"
     bordercolor="#000000"
     borderopacity="0.25"
     inkscape:showpageshadow="2"
     inkscape:pageopacity="0.0"
     inkscape:pagecheckerboard="0"
     inkscape:deskcolor="#d1d1d1"
     inkscape:document-units="mm"
     inkscape:zoom="0.72604517"
     inkscape:cx="703.1243"
     inkscape:cy="559.88252"
     inkscape:window-width="1920"
     inkscape:window-height="1017"
     inkscape:window-x="-8"
     inkscape:window-y="-8"
     inkscape:window-maximized="1"
     inkscape:current-layer="layer1" />
  <defs
     id="defs1">
    <rect
       x="327.80329"
       y="853.94136"
       width="48.206367"
       height="49.583692"
       id="rect102" />
    <rect
       x="411.82011"
       y="926.93957"
       width="12.395923"
       height="84.016811"
       id="rect101" />
    <pattern
       inkscape:collect="always"
       xlink:href="#pattern6-7"
       preserveAspectRatio="xMidYMid"
       id="pattern38"
       patternTransform="matrix(1.022537,0,0,1.022537,167.17452,352.67143)" />
    <pattern
       patternUnits="userSpaceOnUse"
       width="29"
       height="20"
       patternTransform="translate(190,350)"
       preserveAspectRatio="xMidYMid"
       style="fill:#000000"
       id="pattern6-7"
       inkscape:label=""
       inkscape:collect="always"
       inkscape:isstock="true">
      <path
         style="fill:none;stroke:#000000;stroke-width:10;stroke-linecap:butt;stroke-dasharray:none;paint-order:stroke markers fill;stop-color:#000000"
         d="M 0,5 C 19,5 10,15 29,15"
         id="path4-2"
         sodipodi:nodetypes="cc" />
    </pattern>
    <linearGradient
       id="swatch38"
       inkscape:swatch="solid">
      <stop
         style="stop-color:#000000;stop-opacity:1;"
         offset="0"
         id="stop38" />
    </linearGradient>
  </defs>
  <g
     inkscape:label="Slānis 1"
     inkscape:groupmode="layer"
     id="layer1">
    <rect
       style="fill:#80b3ff;fill-opacity:1;stroke-width:0.264999"
       id="rect37"
       width="0.72883439"
       height="1.8220859"
       x="220.4724"
       y="151.23312" />
    <rect
       style="fill:#80b3ff;fill-opacity:1;stroke-width:0.267099"
       id="rect38"
       width="162.89447"
       height="74.341103"
       x="8.0171785"
       y="52.840488"
       rx="10"
       ry="10" />
    <rect
       style="fill:#aaccff;fill-opacity:1;stroke-width:0.269785"
       id="rect41"
       width="165.80981"
       height="71.061348"
       x="8.3815956"
       y="131.91902"
       rx="8.3000002"
       ry="8.2999992" />
    <rect
       style="fill:#d5e5ff;fill-opacity:1;stroke-width:0.284927"
       id="rect98"
       width="167.63191"
       height="75.069939"
       x="8.0171757"
       y="209.53992"
       rx="8.3000002"
       ry="8.2999992" />
    <text
       xml:space="preserve"
       style="font-style:normal;font-variant:normal;font-weight:normal;font-stretch:normal;font-size:7.46229px;line-height:0.3;font-family:Sans;-inkscape-font-specification:'Sans, Normal';font-variant-ligatures:normal;font-variant-caps:normal;font-variant-numeric:normal;font-variant-east-asian:normal;text-align:start;writing-mode:lr-tb;direction:ltr;text-anchor:start;fill:#6fb3c7;fill-opacity:1;stroke-width:0.311418"
       x="11.70273"
       y="191.92522"
       id="text99"
       transform="scale(0.87549521,1.1422107)"><tspan
         sodipodi:role="line"
         id="tspan286">Biometriskās autentifikācijas </tspan><tspan
         sodipodi:role="line"
         id="tspan287" /><tspan
         sodipodi:role="line"
         id="tspan288" /><tspan
         sodipodi:role="line"
         id="tspan289">trūkumi:</tspan><tspan
         sodipodi:role="line"
         id="tspan290" /><tspan
         sodipodi:role="line"
         id="tspan291" /><tspan
         sodipodi:role="line"
         id="tspan292" /><tspan
         sodipodi:role="line"
         id="tspan293" /><tspan
         sodipodi:role="line"
         id="tspan294" /><tspan
         sodipodi:role="line"
         id="tspan295" /><tspan
         sodipodi:role="line"
         id="tspan296">-Biometriskus datus nav iespējami mainīt, </tspan><tspan
         sodipodi:role="line"
         id="tspan297" /><tspan
         sodipodi:role="line"
         id="tspan298" /><tspan
         sodipodi:role="line"
         id="tspan299">tātad ja notiek datu noplūde, </tspan><tspan
         sodipodi:role="line"
         id="tspan300" /><tspan
         sodipodi:role="line"
         id="tspan301" /><tspan
         sodipodi:role="line"
         id="tspan302" /><tspan
         sodipodi:role="line"
         id="tspan303">šo autentifikācijas veidu vairs nav droši lietot</tspan><tspan
         sodipodi:role="line"
         id="tspan304" /><tspan
         sodipodi:role="line"
         id="tspan305" /><tspan
         sodipodi:role="line"
         id="tspan306" /><tspan
         sodipodi:role="line"
         id="tspan307">-Biometriskie dati ir ļoti sensitīvi, privāti dati,</tspan><tspan
         sodipodi:role="line"
         id="tspan308" /><tspan
         sodipodi:role="line"
         id="tspan309" /><tspan
         sodipodi:role="line"
         id="tspan310"> ko ne visi grib atklāt </tspan></text>
    <text
       xml:space="preserve"
       style="font-style:normal;font-variant:normal;font-weight:normal;font-stretch:normal;font-size:8.79082px;line-height:0.3;font-family:Arial;-inkscape-font-specification:'Arial, Normal';font-variant-ligatures:normal;font-variant-caps:normal;font-variant-numeric:normal;font-variant-east-asian:normal;text-align:start;writing-mode:lr-tb;direction:ltr;text-anchor:start;fill:#0066ff;fill-opacity:1;stroke-width:0.207909"
       x="13.826268"
       y="127.34739"
       id="text42"
       transform="scale(0.87891744,1.1377633)"><tspan
         sodipodi:role="line"
         id="tspan272">Biometriskās autentifikācijas priekšrocības:</tspan><tspan
         sodipodi:role="line"
         id="tspan273" /><tspan
         sodipodi:role="line"
         id="tspan274" /><tspan
         sodipodi:role="line"
         id="tspan275" /><tspan
         sodipodi:role="line"
         id="tspan276" /><tspan
         sodipodi:role="line"
         id="tspan277" /><tspan
         sodipodi:role="line"
         id="tspan278" /><tspan
         sodipodi:role="line"
         id="tspan279">- To ir grūti viltot un vēl grūtāk nozagt</tspan><tspan
         sodipodi:role="line"
         id="tspan280" /><tspan
         sodipodi:role="line"
         id="tspan281" /><tspan
         sodipodi:role="line"
         id="tspan282">- To ir ļoti ērti izmantot</tspan><tspan
         sodipodi:role="line"
         id="tspan283" /><tspan
         sodipodi:role="line"
         id="tspan284" /><tspan
         sodipodi:role="line"
         id="tspan285">- Nav jaātceras paroles</tspan></text>
    <text
       xml:space="preserve"
       transform="scale(0.26458333)"
       id="text101"
       style="fill:#d5e5ff;text-orientation:auto;stroke-width:1.0015748;font-size:33.3333168px;line-height:0.3;-inkscape-font-specification:'Arial, Normal';font-family:Arial;font-style:normal;text-align:start;writing-mode:lr-tb;direction:ltr;fill-opacity:1;font-weight:normal;font-stretch:normal;font-variant:normal;font-variant-ligatures:normal;font-variant-caps:normal;font-variant-numeric:normal;font-variant-east-asian:normal;white-space:pre;shape-inside:url(#rect101)" />
    <text
       xml:space="preserve"
       transform="scale(0.26458333)"
       id="text102"
       style="fill:#d5e5ff;text-orientation:auto;stroke-width:1.0015748;font-size:33.3333168px;line-height:0.3;-inkscape-font-specification:'Arial, Normal';font-family:Arial;font-style:normal;text-align:start;writing-mode:lr-tb;direction:ltr;fill-opacity:1;font-weight:normal;font-stretch:normal;font-variant:normal;font-variant-ligatures:normal;font-variant-caps:normal;font-variant-numeric:normal;font-variant-east-asian:normal;white-space:pre;shape-inside:url(#rect102)" />
    <rect
       style="fill:#0044aa;fill-opacity:1;stroke-width:0.264999"
       id="rect255"
       width="0.72883439"
       height="276.22824"
       x="196.42085"
       y="18.22086"
       rx="8.3000002"
       ry="8.2999992" />
    <rect
       style="fill:#0044aa;fill-opacity:1;stroke-width:0.264999"
       id="rect256"
       width="201.88712"
       height="1.0932515"
       x="4.7374234"
       y="2.5509202"
       rx="8.3000002"
       ry="1.0932515" />
    <path
       sodipodi:type="star"
       style="fill:#0044aa;fill-opacity:1;stroke-width:0.264999"
       id="path310"
       inkscape:flatsided="false"
       sodipodi:sides="5"
       sodipodi:cx="180.75092"
       sodipodi:cy="48.103065"
       sodipodi:r1="0"
       sodipodi:r2="10.511399"
       sodipodi:arg1="0.98279372"
       sodipodi:arg2="1.6111123"
       inkscape:rounded="0.37"
       inkscape:randomized="0"
       d="m 180.75092,48.103065 c -3.23603,2.15735 -4.30972,10.346103 -0.42367,10.502858 3.88606,0.156756 3.47541,-8.091873 0.42367,-10.502858 -3.05175,-2.410984 -11.17151,-0.901665 -10.11973,2.842635 1.05177,3.7443 8.76978,0.804786 10.11973,-2.842635 1.34994,-3.64742 -2.59465,-10.903362 -5.83068,-8.746013 -3.23602,2.15735 1.94462,8.589258 5.83068,8.746013 3.88605,0.156756 9.56792,-5.836983 6.51617,-8.247967 -3.05175,-2.410985 -7.56795,4.503667 -6.51617,8.247967 1.05177,3.744301 8.50795,7.295909 9.85789,3.648489 1.34994,-3.64742 -6.62187,-5.805838 -9.85789,-3.648489 z" />
    <path
       sodipodi:type="star"
       style="fill:#d5e5ff;fill-opacity:1;stroke-width:0.264999"
       id="path311"
       inkscape:flatsided="false"
       sodipodi:sides="5"
       sodipodi:cx="155.60612"
       sodipodi:cy="121.71534"
       sodipodi:r1="12.075358"
       sodipodi:r2="0.24150716"
       sodipodi:arg1="-0.090659887"
       sodipodi:arg2="0.53765864"
       inkscape:rounded="-5.93"
       inkscape:randomized="0"
       d="m 167.63189,120.62209 c -6.37854,-70.163946 -47.89932,61.72997 -11.81833,1.21693 36.08098,-60.513033 -60.210323,38.72387 4.54848,10.97567 64.75879,-27.7482 -73.510397,-26.47935 -4.80944,-10.86385 68.70095,15.6155 -55.43461,-45.297083 -9.03293,7.71753 46.40168,53.01461 2.4674,-78.095109 8.84594,-7.93117 6.37854,70.16395 25.94985,-66.719005 -10.13113,-6.20597 -36.08099,60.51304 75.03533,-21.786081 10.27653,5.96212 -64.758802,27.74821 71.47249,4.06247 2.77154,-11.55303 -68.700956,-15.615497 43.90698,64.63057 -2.4947,11.61596 -46.40167,-53.014612 18.22258,69.22975 11.84404,-0.93419 z"
       inkscape:transform-center-x="-0.30271748"
       inkscape:transform-center-y="-0.10918401"
       transform="matrix(0.43780502,0,0,0.38887569,98.003741,79.726998)" />
    <path
       sodipodi:type="star"
       style="fill:#3771c8;fill-opacity:1;stroke-width:0.264999"
       id="path312"
       inkscape:flatsided="false"
       sodipodi:sides="5"
       sodipodi:cx="11.296933"
       sodipodi:cy="190.9546"
       sodipodi:r1="4.0743079"
       sodipodi:r2="0.081486158"
       sodipodi:arg1="1.1071487"
       sodipodi:arg2="1.7354672"
       inkscape:rounded="-5.93"
       inkscape:randomized="0"
       d="m 13.119019,194.59878 c 21.2618,-10.6309 -25.285288,-7.46058 -1.835444,-3.56379 23.449844,3.89679 -19.5702449,-14.15741 -2.8893996,2.77863 16.6808456,16.93605 -0.7181492,-26.35318 2.8221806,-2.84688 3.540329,23.5063 7.416959,-22.98729 -3.5355117,-1.88934 -10.9524704,21.09796 24.8414477,-8.82658 3.5796467,1.80432 -21.2618,10.6309 24.154178,-0.0495 0.704334,-3.94631 -23.449844,-3.89679 16.071008,20.89806 -0.609837,3.96201 -16.6808444,-16.93604 7.511144,22.95669 3.970814,-0.54961 -3.54033,-23.5063 -14.90901809,21.74229 -3.956547,0.64434 10.952471,-21.09795 -19.5120356,14.23753 1.749764,3.60663 z"
       inkscape:transform-center-x="-0.3040443"
       inkscape:transform-center-y="-0.27635333" />
    <path
       sodipodi:type="star"
       style="fill:#d7eef4;fill-opacity:1;stroke-width:0.264999"
       id="path313"
       inkscape:flatsided="false"
       sodipodi:sides="5"
       sodipodi:cx="166.90307"
       sodipodi:cy="283.88098"
       sodipodi:r1="5.6923783"
       sodipodi:r2="0.11384757"
       sodipodi:arg1="0.69473828"
       sodipodi:arg2="1.3230568"
       inkscape:rounded="-5.93"
       inkscape:randomized="0"
       d="m 171.27608,287.52515 c 21.2618,-25.51416 -36.54309,4.61022 -4.34509,-3.5338 32.19801,-8.14401 -32.97806,-7.16215 -2.14239,5.17472 30.83566,12.33686 -15.67702,-33.32992 2.01813,-5.22443 17.69515,28.10548 -3.37917,-33.57723 -5.58348,-0.43847 -2.20431,33.13877 26.85417,-25.20923 5.59237,0.30493 -21.26181,25.51416 30.88962,-13.58972 -1.30839,-5.4457 -32.19801,8.14401 32.2738,17.74974 1.43814,5.41288 -30.83567,-12.33687 22.47,25.17832 4.77485,-2.92716 -17.69515,-28.10549 -6.90786,36.17918 -4.70355,3.04042 2.20431,-33.13877 -17.00239,29.15077 4.25941,3.63661 z"
       inkscape:transform-center-x="0.63335932"
       inkscape:transform-center-y="-0.17234634" />
    <path
       sodipodi:type="star"
       style="fill:#d7eef4;fill-opacity:1;stroke-width:0.264999"
       id="path314"
       inkscape:flatsided="false"
       sodipodi:sides="5"
       sodipodi:cx="17.127607"
       sodipodi:cy="47.009816"
       sodipodi:r1="4.5661342"
       sodipodi:r2="0.091322686"
       sodipodi:arg1="1.0714496"
       sodipodi:arg2="1.6997681"
       inkscape:rounded="-5.93"
       inkscape:randomized="0"
       d="M 19.31411,51.018404 C 42.702089,38.261324 -9.3038341,43.673964 17.115862,47.100379 43.535558,50.526794 -5.369108,32.02689 13.990879,50.328025 33.350867,68.62916 12.132425,20.841186 17.037846,47.026631 21.943267,73.212075 24.425348,20.984189 13.0025,45.051993 1.5796513,69.119797 40.471857,34.172564 17.083877,46.929643 -6.304102,59.686723 44.134575,45.908019 17.714879,42.481605 -8.7048175,39.05519 36.550329,65.244587 17.190342,46.943451 -2.169645,28.642315 26.52109,72.354494 21.615668,46.169049 16.710247,19.983605 5.7872602,71.116775 17.210109,47.048972 28.632959,22.981168 -4.0738685,63.775484 19.31411,51.018404 Z"
       inkscape:transform-center-x="-0.26760161"
       inkscape:transform-center-y="-0.38248529" />
    <path
       sodipodi:type="star"
       style="fill:#2a7fff;fill-opacity:1;stroke-width:0.264999"
       id="path315"
       inkscape:flatsided="false"
       sodipodi:sides="5"
       sodipodi:cx="5.1018405"
       sodipodi:cy="60.857669"
       sodipodi:r1="4.3730061"
       sodipodi:r2="0.087460125"
       sodipodi:arg1="0"
       sodipodi:arg2="0.62831853"
       inkscape:rounded="-5.93"
       inkscape:randomized="0"
       d="M 9.4748464,60.85767 C 9.4748463,35.343511 -9.824249,81.550466 5.1725972,60.909078 20.169443,40.26769 -17.812233,72.900954 6.4531736,65.016646 30.71858,57.132337 -19.190593,53.056541 5.0748138,60.940849 29.340221,68.825158 -13.432842,42.78667 1.5640044,63.428058 16.560851,84.069446 5.0143804,35.343511 5.0143804,60.85767 c 0,25.514158 11.5464706,-23.211776 -3.450376,-2.570389 C -13.432842,78.928669 29.340221,52.890182 5.0748138,60.77449 -19.190593,68.658799 30.71858,64.583003 6.4531736,56.698694 -17.812233,48.814385 20.169443,81.44765 5.1725972,60.806262 -9.824249,40.164874 9.4748464,86.371828 9.4748464,60.85767 Z"
       inkscape:transform-center-x="-0.61086135" />
    <path
       sodipodi:type="star"
       style="fill:#2a7fff;fill-opacity:1;stroke-width:0.264999"
       id="path316"
       inkscape:flatsided="false"
       sodipodi:sides="5"
       sodipodi:cx="196.42086"
       sodipodi:cy="15.669939"
       sodipodi:r1="4.6668169"
       sodipodi:r2="0.093336342"
       sodipodi:arg1="0.67474094"
       sodipodi:arg2="1.3030595"
       inkscape:rounded="-5.93"
       inkscape:randomized="0"
       d="m 200.06502,18.585276 c 17.00944,-21.2617984 -29.87777,4.377933 -3.61948,-2.825326 26.2583,-7.2032593 -27.14861,-5.329991 -1.67123,4.276691 25.47738,9.606682 -13.3964,-27.0625989 1.56857,-4.315403 14.96496,22.747195 -3.32026,-27.46692 -4.58382,-0.267866 -1.26355,27.199054 21.59835,-21.1035389 4.58891,0.15826 -17.00944,21.2618 25.09658,-11.6454993 -1.16172,-4.442241 -26.2583,7.203259 26.74491,14.019895 1.26753,4.413214 -25.47738,-9.6066808 18.8308,20.269605 3.86583,-2.47759 -14.96496,-22.7471962 -5.06907,29.76831 -3.80552,2.569255 1.26355,-27.199054 -13.45851,24.172805 3.55093,2.911006 z"
       inkscape:transform-center-x="0.55962758"
       inkscape:transform-center-y="-0.098812228" />
    <path
       sodipodi:type="star"
       style="fill:#2a7fff;fill-opacity:1;stroke-width:0.264999"
       id="path317"
       inkscape:flatsided="false"
       sodipodi:sides="5"
       sodipodi:cx="144.3092"
       sodipodi:cy="123.17301"
       sodipodi:r1="5.4662577"
       sodipodi:r2="0.10932516"
       sodipodi:arg1="0.64350111"
       sodipodi:arg2="1.2718196"
       inkscape:rounded="-5.93"
       inkscape:randomized="0"
       d="m 148.68221,126.45277 c 19.13562,-25.51416 -34.81869,6.21847 -4.3408,-3.17528 30.47788,-9.39376 -31.97874,-5.24675 -1.8001,5.068 30.17864,10.31474 -16.67369,-31.192934 1.67848,-5.10957 18.35218,26.08337 -4.89202,-32.034921 -5.37621,-0.1459 -0.4842,31.88903 24.51378,-25.496763 5.37816,0.0174 -19.13562,25.51416 28.95531,-14.55193 -1.52258,-5.15817 -30.47789,9.39375 31.82404,15.43506 1.6454,5.12031 -30.17864,-10.31474 22.78739,23.04134 4.43521,-3.04202 -18.35218,-26.083368 -4.84545,35.03616 -4.36125,3.14713 0.48419,-31.889022 -14.87193,28.79226 4.26369,3.2781 z"
       inkscape:transform-center-x="0.72850798"
       inkscape:transform-center-y="-0.037871437" />
    <path
       sodipodi:type="star"
       style="fill:#2a7fff;fill-opacity:1;stroke-width:0.264999"
       id="path318"
       inkscape:flatsided="false"
       sodipodi:sides="5"
       sodipodi:cx="161.80123"
       sodipodi:cy="211.72638"
       sodipodi:r1="4.9566095"
       sodipodi:r2="0.099132195"
       sodipodi:arg1="0.62879629"
       sodipodi:arg2="1.2571148"
       inkscape:rounded="-5.93"
       inkscape:randomized="0"
       d="m 165.80981,214.64172 c 17.00944,-23.38798 -31.48604,6.10233 -3.978,-2.82105 27.50804,-8.92337 -29.06401,-4.33066 -1.56451,4.61899 27.49949,8.94966 -15.53339,-28.05927 1.4537,-4.65505 16.98708,23.40422 -4.86257,-28.97977 -4.87639,-0.0606 -0.0138,28.91917 21.88588,-23.44392 4.87644,-0.0559 -17.00944,23.38798 26.05879,-13.57981 -1.44925,-4.65644 -27.50804,8.92338 29.0596,13.57014 1.5601,4.62048 -27.4995,-8.94965 20.96778,20.58699 3.9807,-2.81724 -16.98709,-23.40422 -3.92606,31.83073 -3.91224,2.91156 0.0138,-28.91918 -13.09999,26.30327 3.90945,2.91529 z"
       inkscape:transform-center-x="0.69138774"
       inkscape:transform-center-y="-0.0010806681" />
    <path
       sodipodi:type="star"
       style="fill:#d5f6ff;fill-opacity:1;stroke-width:0.264999"
       id="path319"
       inkscape:flatsided="false"
       sodipodi:sides="5"
       sodipodi:cx="172.36933"
       sodipodi:cy="191.68344"
       sodipodi:r1="6.0321776"
       sodipodi:r2="0.12064356"
       sodipodi:arg1="1.1341692"
       sodipodi:arg2="1.7624877"
       inkscape:rounded="-5.93"
       inkscape:randomized="0"
       d="m 174.92024,197.1497 c 31.8927,-14.88326 -37.1238,-12.05307 -2.5739,-5.34783 34.54989,6.70525 -28.39767,-21.73577 -4.38746,3.99681 24.01021,25.73258 -0.009,-39.03144 4.2907,-4.1005 4.29944,34.93094 11.8966,-33.72451 -5.15698,-2.93764 -17.05357,30.78687 37.11841,-12.06968 5.22571,2.81358 -31.8927,14.88325 35.75016,0.89288 1.20026,-5.81237 -34.54989,-6.70525 22.94917,31.57197 -1.06104,5.83939 -24.0102,-25.73258 10.19823,34.27634 5.89879,-0.6546 -4.29943,-34.93094 -22.93504,31.58223 -5.88146,0.79536 17.05357,-30.78687 -29.44732,20.29106 2.44538,5.4078 z"
       inkscape:transform-center-x="-0.52270091"
       inkscape:transform-center-y="-0.33583422" />
  </g>
  <text
     xml:space="preserve"
     style="font-style:italic;font-variant:normal;font-weight:normal;font-stretch:normal;font-size:16.2328px;line-height:0.3;font-family:Arial;-inkscape-font-specification:'Arial, Italic';font-variant-ligatures:normal;font-variant-caps:normal;font-variant-numeric:normal;font-variant-east-asian:normal;text-align:start;writing-mode:lr-tb;direction:ltr;text-anchor:start;fill:#0709f4;fill-opacity:1;stroke:url(#pattern38);stroke-width:0.257793"
     x="16.913742"
     y="21.562708"
     id="text1"
     transform="scale(0.62300347,1.6051275)"><tspan
       sodipodi:role="line"
       id="tspan240">Biometriskā autentifikācija, tās drošība</tspan></text>
  <text
     xml:space="preserve"
     style="font-style:normal;font-variant:normal;font-weight:normal;font-stretch:normal;font-size:8.81944px;line-height:0.3;font-family:Arial;-inkscape-font-specification:'Arial, Normal';font-variant-ligatures:normal;font-variant-caps:normal;font-variant-numeric:normal;font-variant-east-asian:normal;text-align:start;writing-mode:lr-tb;direction:ltr;text-anchor:start;fill:#0711f4;fill-opacity:1;stroke-width:0.264999"
     x="16.034355"
     y="68.146011"
     id="text23"><tspan
       sodipodi:role="line"
       id="tspan257">Biometriskā autentifikācija ir:</tspan><tspan
       sodipodi:role="line"
       id="tspan258" /><tspan
       sodipodi:role="line"
       id="tspan259" /><tspan
       sodipodi:role="line"
       id="tspan260" /><tspan
       sodipodi:role="line"
       id="tspan261" /><tspan
       sodipodi:role="line"
       id="tspan262" /><tspan
       sodipodi:role="line"
       id="tspan263">- pirkstu nospiedumi</tspan><tspan
       sodipodi:role="line"
       id="tspan264" /><tspan
       sodipodi:role="line"
       id="tspan265" /><tspan
       sodipodi:role="line"
       id="tspan266" /><tspan
       sodipodi:role="line"
       id="tspan267">-sejas atpazīšana</tspan><tspan
       sodipodi:role="line"
       id="tspan268" /><tspan
       sodipodi:role="line"
       id="tspan269" /><tspan
       sodipodi:role="line"
       id="tspan270" /><tspan
       sodipodi:role="line"
       id="tspan271">-DNS analīze (reti izmantota)</tspan></text>
</svg>
